:SAMPLES-PER-SECOND 30
:FULLY-SPECIFIED
:DEGREES
356
root  29.9983 33.4659 -67.7004 3.73183 -9.82626 -0.153484
RightUpLeg  -6.97052 -15.7169 1.03291
RightLeg  12.0776 -10.5083 -1.53782
RightFoot  0.562409 0.00837942 -0.1437
RightToes  -23.0501 -0.105632 -0.205423
Spine  3.96662 -0.801862 0.98788
Spine1  7.40574 -1.63849 1.58112
HEad  20.5846 26.44 4.23934
LeftShoulder1  0 -2.42657e-020 -4.95415e-022
LeftArm  -37.6291 10.6458 -89.6461
LeftForeArm  60.2304 -14.4299 -2.55157
LeftHand  0.265626 -10.1136 -3.37341
RightShoulder  0 2.42657e-020 1.07489e-018
RightArm  -44.6851 -13.8499 81.9129
RightForeArm  48.6645 18.8002 3.41382
RightHand  -1.38793 21.893 -6.79895
LeftUpLeg  -4.40777 3.4197 1.44938
LeftLeg  13.5061 -4.77797 -0.827936
LeftFoot  -2.5172 0.00511616 0.160988
LeftToes  -12.1677 8.72033e-007 1.17809e-007
357
root  29.9522 33.4667 -67.7899 3.86693 -10.5238 -0.244824
RightUpLeg  -7.31444 -15.2729 1.28951
RightLeg  12.0578 -10.2388 -1.49524
RightFoot  0.70186 0.00913758 -0.169248
RightToes  -22.8473 -0.105381 -0.204771
Spine  4.00154 -0.767174 1.05468
Spine1  7.47464 -1.57463 1.70909
HEad  20.2083 25.6945 3.74991
LeftShoulder1  0 -2.42657e-020 -4.95415e-022
LeftArm  -37.7405 10.6013 -89.6443
LeftForeArm  60.2659 -14.4287 -2.55127
LeftHand  0.266303 -10.0301 -3.40625
RightShoulder  0 2.42657e-020 1.07489e-018
RightArm  -44.7265 -13.7347 81.7952
RightForeArm  48.7702 18.6992 3.39378
RightHand  -1.38535 21.9127 -6.7791
LeftUpLeg  -4.73687 4.084 1.5948
LeftLeg  13.8766 -4.66751 -0.84
LeftFoot  -2.65963 0.00404253 0.166479
LeftToes  -12.2805 8.72033e-007 1.17809e-007
358
root  29.9296 33.4668 -67.9012 4.10611 -11.4061 -0.234957
RightUpLeg  -8.16795 -14.7448 1.44164
RightLeg  12.6692 -9.78593 -1.5362
RightFoot  0.6373 0.00728302 -0.153635
RightToes  -22.7727 -0.105222 -0.204328
Spine  4.04537 -0.690889 1.11805
Spine1  7.55981 -1.42704 1.8325
HEad  19.598 25.0436 2.94265
LeftShoulder1  0 -2.42657e-020 -4.95415e-022
LeftArm  -37.9145 10.4633 -89.6987
LeftForeArm  60.2584 -14.3821 -2.54254
LeftHand  0.272778 -10.1295 -3.44935
RightShoulder  0 2.42657e-020 1.07489e-018
RightArm  -44.6757 -13.4863 81.5985
RightForeArm  48.8361 18.6118 3.3765
RightHand  -1.38814 21.8798 -6.80449
LeftUpLeg  -5.33011 4.30525 1.59361
LeftLeg  14.4674 -4.15194 -0.791882
LeftFoot  -2.81326 0.00440402 0.153729
LeftToes  -12.347 8.72033e-007 1.17809e-007
359
root  29.9551 33.4604 -68.0424 4.61634 -12.1866 -0.180728
RightUpLeg  -9.50152 -14.7037 1.55567
RightLeg  13.5462 -8.96558 -1.54913
RightFoot  0.451678 0.00401026 -0.11516
RightToes  -22.7555 -0.105165 -0.204155
Spine  4.04165 -0.662681 1.20819
Spine1  7.55202 -1.37351 1.99906
HEad  18.7321 24.4689 1.75255
LeftShoulder1  0 -2.42657e-020 -4.95415e-022
LeftArm  -37.7263 10.3754 -89.7998
LeftForeArm  60.0467 -14.4643 -2.55842
LeftHand  0.276636 -10.1421 -3.48899
RightShoulder  0 2.42657e-020 1.07489e-018
RightArm  -44.5301 -13.1139 81.2924
RightForeArm  48.897 18.5116 3.35675
RightHand  -1.40393 21.8931 -6.88138
LeftUpLeg  -6.59777 4.72015 1.40707
LeftLeg  15.6811 -3.65514 -0.778129
LeftFoot  -3.18483 0.00429456 0.154471
LeftToes  -12.4989 8.72033e-007 1.17809e-007
360
root  30.024 33.4522 -68.1793 4.90458 -12.6397 -0.01861
RightUpLeg  -10.4098 -14.4978 1.4736
RightLeg  14.0543 -8.70236 -1.58342
RightFoot  0.450876 0.00317828 -0.113499
RightToes  -22.9787 -0.105222 -0.204313
Spine  4.13613 -0.733129 1.29797
Spine1  7.73029 -1.51769 2.15262
HEad  17.7728 23.837 0.417266
LeftShoulder1  0 -2.42657e-020 -4.95415e-022
LeftArm  -37.3867 10.0846 -89.8999
LeftForeArm  59.9839 -14.5307 -2.57102
LeftHand  0.280427 -10.1642 -3.52703
RightShoulder  0 2.42657e-020 1.07489e-018
RightArm  -44.3729 -12.667 80.9513
RightForeArm  48.7886 18.541 3.36269
RightHand  -1.40221 21.901 -6.86983
LeftUpLeg  -8.06456 4.46623 1.12166
LeftLeg  17.5292 -3.08392 -0.761831
LeftFoot  -3.76534 0.00513028 0.156065
LeftToes  -11.9267 8.72033e-007 1.17809e-007
361
root  30.1239 33.4347 -68.3169 5.27851 -12.7301 0.0200057
RightUpLeg  -11.3026 -14.289 1.47594
RightLeg  14.4877 -8.79592 -1.66892
RightFoot  0.48195 0.00306319 -0.121635
RightToes  -23.1973 -0.105405 -0.204863
Spine  4.21568 -0.834433 1.46049
Spine1  7.87083 -1.73799 2.46298
HEad  17.0133 22.9039 -0.515767
LeftShoulder1  0 -2.42657e-020 -4.95415e-022
LeftArm  -36.5842 9.56376 -90.0749
LeftForeArm  59.8479 -14.4762 -2.56109
LeftHand  0.282708 -10.1956 -3.54059
RightShoulder  0 2.42657e-020 1.07489e-018
RightArm  -43.9785 -12.369 80.3844
RightForeArm  48.4553 18.6618 3.38695
RightHand  -1.40423 21.8891 -6.88427
LeftUpLeg  -10.0453 4.99939 0.934244
LeftLeg  20.1434 -3.4118 -1.00981
LeftFoot  -4.49766 0.00882156 0.224631
LeftToes  -12.0624 8.72033e-007 1.17809e-007
362
root  30.2561 33.4256 -68.3916 5.12999 -12.6458 0.237724
RightUpLeg  -11.4883 -14.2098 1.08271
RightLeg  14.7414 -8.91629 -1.73235
RightFoot  0.593161 0.00379413 -0.141324
RightToes  -23.6974 -0.105725 -0.205866
Spine  4.41529 -0.958086 1.55593
Spine1  8.2313 -2.00994 2.64684
HEad  16.6228 21.8495 -1.05434
LeftShoulder1  0 -2.42657e-020 -4.95415e-022
LeftArm  -36.0657 8.8599 -90.2473
LeftForeArm  60.0781 -14.3694 -2.54058
LeftHand  0.283617 -10.1787 -3.5561
RightShoulder  0 2.42657e-020 1.07489e-018
RightArm  -43.8886 -12.0568 79.8087
RightForeArm  48.4072 18.6835 3.39131
RightHand  -1.37766 21.9502 -6.72708
LeftUpLeg  -11.4245 4.47056 0.857561
LeftLeg  22.7886 -4.51608 -1.56514
LeftFoot  -4.62564 0.0131822 0.326377
LeftToes  -14.7677 8.72033e-007 1.17809e-007
